<svg width="166" height="41" xmlns="http://www.w3.org/2000/svg" xmlns:xlink="http://www.w3.org/1999/xlink" xml:space="preserve" overflow="hidden"><defs><clipPath id="clip0"><rect x="74" y="55" width="166" height="41"/></clipPath></defs><g clip-path="url(#clip0)" transform="translate(-74 -55)"><path d="M8.95248 34.0817 31.7189 34.0817 24.6871 27.6579 30.9914 27.6579C31.7093 27.6579 32.3839 27.9123 32.8929 28.3775L39.5358 34.446C40.2969 35.1436 40.7169 36.0693 40.7169 37.0524 40.7169 38.0352 39.824 38.8731 38.722 38.8731L0.0408136 38.8731C0.264085 36.4577 1.40925 34.2002 3.30106 32.4713L20.733 16.5412 31.7645 6.45788 8.90445 6.45788 15.9842 12.9256 9.6799 12.9256C8.96448 12.9256 8.28987 12.6711 7.7833 12.2082L1.31082 6.29333C0.46575 5.52106 0 4.49432 0 3.40393 0 2.44518 0.854674 1.66633 1.90141 1.66633L40.7169 1.66633 40.7169 3.04413C40.7169 4.34075 40.1649 5.55837 39.1613 6.47325L8.95248 34.0817Z" fill="#FFFFFF" transform="matrix(1 0 0 1.01147 74 55)"/><path d="M46.9778 1.67227 74.5575 1.67227 74.5575 6.90355 53.0613 6.90355 53.0613 17.1524 71.5128 17.1524 71.5128 22.3837 53.0613 22.3837 53.0613 33.642 75.1665 33.642 75.1665 38.8731 46.9778 38.8731 46.9778 1.66633 46.9778 1.67227Z" fill="#FFFFFF" transform="matrix(1 0 0 1.01147 74 55)"/><path d="M81.4355 38.8731 81.4355 1.66633 87.765 1.66633 112.691 30.0257 112.691 1.66633 119.02 1.66633 119.02 38.8731 112.632 38.8731 87.765 10.787 87.765 38.8731 81.4355 38.8731Z" fill="#FFFFFF" transform="matrix(1 0 0 1.01147 74 55)"/><path d="M125.284 20.3246C125.284 9.493 134.02 1.66633 145.63 1.66633 157.24 1.66633 166.001 9.493 166.001 20.3246 166.001 31.1561 157.322 38.8731 145.63 38.8731 133.938 38.8731 125.284 31.237 125.284 20.3246ZM145.63 33.5785C154.077 33.5785 159.617 28.232 159.617 20.2727 159.617 12.3134 154.077 6.96677 145.63 6.96677 137.184 6.96677 131.674 12.5037 131.674 20.2727 131.674 28.0416 137.303 33.5785 145.63 33.5785Z" fill="#FFFFFF" transform="matrix(1 0 0 1.01147 74 55)"/></g></svg>